<svg width="32" height="32" viewBox="0 0 32 32" fill="none" xmlns="http://www.w3.org/2000/svg">
  <defs>
    <linearGradient id="gradient" x1="0%" y1="0%" x2="100%" y2="100%">
      <stop offset="0%" style="stop-color:#FF6B6B;stop-opacity:1" />
      <stop offset="100%" style="stop-color:#FFA500;stop-opacity:1" />
    </linearGradient>
  </defs>
  
  <!-- Background circle -->
  <circle cx="16" cy="16" r="15" fill="url(#gradient)" stroke="rgba(255,255,255,0.2)" stroke-width="2"/>
  
  <!-- Music note -->
  <path d="M12 8C12 6.89543 12.8954 6 14 6H18C19.1046 6 20 6.89543 20 8V20C20 21.1046 19.1046 22 18 22H14C12.8954 22 12 21.1046 12 20V8Z" fill="white"/>
  
  <!-- Play button -->
  <path d="M14 10L18 16L14 22V10Z" fill="url(#gradient)"/>
  
  <!-- Sound waves -->
  <path d="M22 12C22 12 23 12 23 13C23 14 22 14 22 14" stroke="white" stroke-width="2" stroke-linecap="round" opacity="0.8"/>
  <path d="M24 10C24 10 25 10 25 11C25 12 24 12 24 12" stroke="white" stroke-width="2" stroke-linecap="round" opacity="0.6"/>
  <path d="M26 8C26 8 27 8 27 9C27 10 26 10 26 10" stroke="white" stroke-width="2" stroke-linecap="round" opacity="0.4"/>
</svg>
